<?xml version="1.0" encoding="UTF-8"?>
<svg width="240" height="240" viewBox="0 0 240 240" fill="none" xmlns="http://www.w3.org/2000/svg">
  <path d="M120 27C84.101 27 55 56.101 55 92C55 127.899 84.101 157 120 157C155.899 157 185 127.899 185 92C185 56.101 155.899 27 120 27Z" fill="#2E4E3E"/>
  <path d="M120.5 180C114.5 180 109.5 179 105 177.5C100.5 176 94.8333 173.333 88 169.5C70 159.5 58 145 52 126C46 107 47 88.6667 55 71C63 53.3333 76.3333 41.6667 95 36C113.667 30.3333 132 31.1667 150 38.5C168 45.8333 180.167 58.5 186.5 76.5C192.833 94.5 192.833 112.333 186.5 130C180.167 147.667 168.167 160.5 150.5 168.5C148.167 169.833 145.667 171.167 143 172.5C140.333 173.833 137.833 175 135.5 176C128.167 178.667 123.833 180 122.5 180H120.5Z" fill="white"/>
  <path d="M120.5 180C114.5 180 109.5 179 105 177.5C100.5 176 94.8333 173.333 88 169.5C70 159.5 58 145 52 126C46 107 47 88.6667 55 71C63 53.3333 76.3333 41.6667 95 36C109.971 31.4902 123.954 29.7 138 33.5C121.787 36.9999 110.5 44.5 105 53.5C95 70 97.5 90.5 105 105C112.5 119.5 125 133.5 145 144.5C165 155.5 182.5 158 182.5 158C170.3 168.4 159 175.333 148.5 179C136.5 183.667 129.167 183.167 126.5 183C125.167 182.333 123.833 181.667 122.5 181L120.5 180Z" fill="#E8DCC0"/>
</svg>
