<?xml version="1.0" encoding="UTF-8"?>
<svg width="500" height="500" viewBox="0 0 500 500" fill="none" xmlns="http://www.w3.org/2000/svg">
  <path d="M250 40C187.5 40 135 92.5 135 155C135 217.5 187.5 270 250 270C312.5 270 365 217.5 365 155C365 92.5 312.5 40 250 40Z" fill="#2E4E3E" fill-opacity="0.1"/>
  <path d="M250.5 315C239.167 315 229.167 313.167 220.5 310.5C211.833 307.833 200.833 302.5 187.5 294.5C152.5 275.5 129.167 248 117.5 212C105.833 176 107.5 141.333 123.5 108C139.5 74.6667 165.333 52.3333 201 41C236.667 29.6667 272 31.1667 307 44.5C342 57.8333 366.167 81.5 379.5 115.5C392.833 149.5 392.833 183 379.5 216C366.167 249 342.167 273.5 307.5 289.5C302.833 292 297.833 294.5 292.5 297C287.167 299.5 282.167 301.667 277.5 303.5C263.167 308.5 254.5 311.5 251.5 312.5L250.5 315Z" fill="#2E4E3E"/>
  <path d="M250.5 315C239.167 315 229.167 313.167 220.5 310.5C211.833 307.833 200.833 302.5 187.5 294.5C152.5 275.5 129.167 248 117.5 212C105.833 176 107.5 141.333 123.5 108C139.5 74.6667 165.333 52.3333 201 41C229.471 31.8236 256.454 28.7 284 36.5C252.287 43.4998 230.5 57.5 220.5 74.5C201.5 105.5 206.5 144.5 220.5 172C234.5 199.5 258 225.5 296.5 246.5C335 267.5 368.5 272 368.5 272C345.3 291.5 323.667 304 303.5 310C275.5 318.667 261.167 317.667 255.5 317C252.833 315.667 252.167 316.333 249.5 315L250.5 315Z" fill="#2E4E3E" fill-opacity="0.3"/>
</svg>
