<?xml version="1.0" encoding="UTF-8"?>
<svg width="512" height="512" viewBox="0 0 512 512" fill="none" xmlns="http://www.w3.org/2000/svg">
  <circle cx="256" cy="256" r="245" stroke="#2E4E3E" stroke-width="12"/>
  <path d="M166 128V384H196V213.143L289.053 347.429L305.158 366.857L333 384V128H303V298.857L209.947 164.571L193.842 145.143L166 128Z" fill="#2E4E3E"/>
  <path d="M397.5 128C380.167 128 346 150 323 213.5C300 277 303 369 332 384C353.333 384 396 362 419 298.5C442 235 452.5 152 430.5 134C408.5 116 414.833 128 397.5 128Z" fill="#2E4E3E"/>
  <path d="M419 298.5C399 353 365.5 374 347 379.5C330 386.5 322.5 377.5 322.5 377.5C313 371 310 324 334 241C358 158 395 133.5 409.5 134C424 134.5 430.5 134 430.5 134C446 146 439 244 419 298.5Z" stroke="#2E4E3E" stroke-width="4"/>
</svg>
